<?xml version="1.0" encoding="iso-8859-1"?>
<!-- Uploaded to: SVG Repo, www.svgrepo.com, Generator: SVG Repo Mixer Tools -->
<svg version="1.1" id="Layer_1" xmlns="http://www.w3.org/2000/svg" xmlns:xlink="http://www.w3.org/1999/xlink" 
	 viewBox="0 0 512 512" xml:space="preserve">
<g>
	<path style="fill:#7C7A75;" d="M223.896,366.304c0,7.144-5.792,12.935-12.935,12.935h-49.932c-7.143,0-12.935-5.79-12.935-12.935
		v-91.153c0-7.143,5.792-12.935,12.935-12.935h49.932c7.143,0,12.935,5.792,12.935,12.935V366.304z"/>
	<path style="fill:#7C7A75;" d="M503.916,366.304c0,7.144-5.792,12.935-12.935,12.935h-49.932c-7.143,0-12.935-5.79-12.935-12.935
		v-91.153c0-7.143,5.792-12.935,12.935-12.935h49.932c7.143,0,12.935,5.792,12.935,12.935V366.304z"/>
	<path style="fill:#7C7A75;" d="M83.886,307.793c0,7.144-5.792,12.935-12.935,12.935H21.019c-7.143,0-12.935-5.79-12.935-12.935
		V216.64c0-7.143,5.792-12.935,12.935-12.935h49.932c7.143,0,12.935,5.792,12.935,12.935
		C83.886,216.64,83.886,307.793,83.886,307.793z"/>
	<path style="fill:#7C7A75;" d="M363.905,222.282c0,7.144-5.791,12.935-12.935,12.935h-49.932c-7.143,0-12.935-5.79-12.935-12.935
		V131.13c0-7.143,5.791-12.935,12.935-12.935h49.932c7.143,0,12.935,5.792,12.935,12.935V222.282z"/>
</g>
<g>
	<rect x="42.926" y="236.565" style="fill:#36A1CB;" width="40.96" height="51.299"/>
	<rect x="182.94" y="294.717" style="fill:#36A1CB;" width="40.96" height="51.299"/>
	<rect x="322.947" y="151.056" style="fill:#36A1CB;" width="40.96" height="51.299"/>
	<rect x="462.954" y="294.717" style="fill:#36A1CB;" width="40.96" height="51.299"/>
</g>
<g>
	<path style="fill:#CCC3A8;" d="M485.154,262.218V21.02c0-7.143-5.791-12.935-12.935-12.935h-12.409
		c-7.143,0-12.935,5.792-12.935,12.935v241.197L485.154,262.218L485.154,262.218z"/>
	<path style="fill:#CCC3A8;" d="M446.876,379.239v111.742c0,7.143,5.791,12.935,12.935,12.935h12.409
		c7.143,0,12.935-5.792,12.935-12.935V379.239H446.876z"/>
	<path style="fill:#CCC3A8;" d="M26.846,320.728v170.253c0,7.143,5.792,12.935,12.935,12.935h12.409
		c7.143,0,12.935-5.792,12.935-12.935V320.728L26.846,320.728L26.846,320.728z"/>
	<path style="fill:#CCC3A8;" d="M65.124,203.706V21.02c0-7.143-5.792-12.935-12.935-12.935H39.781
		c-7.143,0-12.935,5.792-12.935,12.935v182.685L65.124,203.706L65.124,203.706z"/>
	<path style="fill:#CCC3A8;" d="M345.144,118.194V21.02c0-7.143-5.792-12.935-12.935-12.935H319.8
		c-7.143,0-12.935,5.792-12.935,12.935v97.174H345.144z"/>
	<path style="fill:#CCC3A8;" d="M345.144,342.028V235.217h-38.278v255.764c0,7.143,5.792,12.935,12.935,12.935h12.409
		c7.143,0,12.935-5.792,12.935-12.935V370.053"/>
	<path style="fill:#CCC3A8;" d="M205.134,107.479V21.02c0-7.143-5.792-12.935-12.935-12.935h-12.409
		c-7.143,0-12.935,5.792-12.935,12.935v241.197h38.278V136.57"/>
	<path style="fill:#CCC3A8;" d="M166.856,379.239v111.742c0,7.143,5.792,12.935,12.935,12.935H192.2
		c7.143,0,12.935-5.792,12.935-12.935V379.239H166.856z"/>
</g>
<g>
	<path style="fill:#6B6861;" d="M176.865,366.559v-91.152c0-7.143,5.789-12.935,12.935-12.935h-21.558
		c-7.145,0-12.935,5.792-12.935,12.935v91.152c0,7.144,5.789,12.935,12.935,12.935h21.558
		C182.654,379.493,176.865,373.703,176.865,366.559z"/>
	<path style="fill:#6B6861;" d="M456.884,366.559v-91.152c0-7.143,5.789-12.935,12.935-12.935h-21.558
		c-7.145,0-12.935,5.792-12.935,12.935v91.152c0,7.144,5.789,12.935,12.935,12.935h21.558
		C462.674,379.493,456.884,373.703,456.884,366.559z"/>
	<path style="fill:#6B6861;" d="M36.854,308.048v-91.152c0-7.143,5.789-12.935,12.935-12.935H28.231
		c-7.145,0-12.935,5.792-12.935,12.935v91.152c0,7.144,5.789,12.935,12.935,12.935h21.558
		C42.643,320.982,36.854,315.192,36.854,308.048z"/>
	<path style="fill:#6B6861;" d="M316.875,222.536v-91.152c0-7.143,5.789-12.935,12.935-12.935h-21.558
		c-7.145,0-12.935,5.792-12.935,12.935v91.152c0,7.144,5.789,12.935,12.935,12.935h21.558
		C322.664,235.471,316.875,229.681,316.875,222.536z"/>
</g>
<g>
	<path style="fill:#2B80AF;" d="M210.626,333.337v-25.43c0-7.144,5.792-12.935,12.935-12.935h-20.478
		c-7.145,0-12.935,5.79-12.935,12.935v25.43c0,7.144,5.789,12.935,12.935,12.935h20.478
		C216.418,346.272,210.626,340.481,210.626,333.337z"/>
	<path style="fill:#2B80AF;" d="M70.617,275.186v-25.43c0-7.144,5.792-12.935,12.935-12.935H63.074
		c-7.145,0-12.935,5.79-12.935,12.935v25.43c0,7.144,5.789,12.935,12.935,12.935h20.478
		C76.408,288.121,70.617,282.33,70.617,275.186z"/>
	<path style="fill:#2B80AF;" d="M350.637,189.675v-25.43c0-7.144,5.792-12.935,12.935-12.935h-20.478
		c-7.145,0-12.935,5.79-12.935,12.935v25.43c0,7.144,5.789,12.935,12.935,12.935h20.478
		C356.428,202.609,350.637,196.819,350.637,189.675z"/>
	<path style="fill:#2B80AF;" d="M490.646,333.337v-25.43c0-7.144,5.792-12.935,12.935-12.935h-20.478
		c-7.145,0-12.935,5.79-12.935,12.935v25.43c0,7.144,5.789,12.935,12.935,12.935h20.478
		C496.437,346.272,490.646,340.481,490.646,333.337z"/>
</g>
<g>
	<path style="fill:#231F20;" d="M493.238,254.259V21.02c0-11.589-9.429-21.019-21.019-21.019h-12.409
		c-11.589,0-21.019,9.429-21.019,21.019v233.238c-10.532,1.13-18.762,10.066-18.762,20.893v91.152
		c0,10.826,8.231,19.763,18.762,20.893V490.98c0,11.589,9.429,21.019,21.019,21.019h12.409c11.59,0,21.019-9.429,21.019-21.019
		V387.196C503.77,386.066,512,377.13,512,366.303v-20.287v-51.299v-19.566C512,264.325,503.769,255.389,493.238,254.259z
		 M454.96,21.02c0-2.674,2.176-4.851,4.85-4.851h12.409c2.674,0,4.851,2.176,4.851,4.851v233.113h-22.11V21.02z M477.07,490.981
		c0,2.674-2.176,4.851-4.851,4.851h-12.409c-2.674,0-4.85-2.176-4.85-4.851V387.323h22.11V490.981z M490.981,371.155h-5.827h-38.278
		h-5.827c-2.674,0-4.85-2.176-4.85-4.85v-91.152c0-2.674,2.176-4.85,4.85-4.85h5.827h38.278h5.827c2.674,0,4.85,2.176,4.85,4.85
		v11.482h-32.876c-4.466,0-8.084,3.618-8.084,8.084v51.299c0,4.466,3.618,8.084,8.084,8.084h32.876v12.203
		C495.832,368.979,493.655,371.155,490.981,371.155z M495.832,337.933H471.04v-35.131h24.791V337.933z"/>
	<path style="fill:#231F20;" d="M73.208,195.748V21.02c0-11.589-9.429-21.019-21.019-21.019H39.781
		c-11.589,0-21.019,9.429-21.019,21.019v174.727C8.231,196.877,0,205.814,0,216.64v91.152c0,10.826,8.231,19.763,18.762,20.893
		V490.98c0,11.589,9.429,21.019,21.019,21.019h12.409c11.589,0,21.019-9.429,21.019-21.019V328.686
		c10.532-1.131,18.762-10.066,18.762-20.893v-19.927v-51.299v-19.926C91.97,205.814,83.739,196.877,73.208,195.748z M34.93,21.02
		c0-2.674,2.176-4.851,4.851-4.851h12.409c2.674,0,4.851,2.176,4.851,4.851v174.601H34.93V21.02z M57.04,490.981
		c0,2.674-2.176,4.851-4.851,4.851H39.781c-2.674,0-4.851-2.176-4.851-4.851V328.812h22.11V490.981z M70.951,312.644h-5.827H26.846
		h-5.827c-2.674,0-4.851-2.176-4.851-4.85v-91.152c0-2.674,2.176-4.851,4.851-4.851h5.827h38.278h5.827
		c2.674,0,4.851,2.176,4.851,4.851v11.842H42.926c-4.466,0-8.084,3.618-8.084,8.084v51.299c0,4.466,3.618,8.084,8.084,8.084h32.876
		v11.843C75.802,310.467,73.626,312.644,70.951,312.644z M75.802,279.781H51.01V244.65h24.791V279.781z"/>
	<path style="fill:#231F20;" d="M353.228,110.236V21.02c0-11.589-9.429-21.019-21.019-21.019H319.8
		c-11.59,0-21.019,9.429-21.019,21.019v89.216c-10.532,1.131-18.762,10.066-18.762,20.893v91.152
		c0,10.826,8.231,19.763,18.762,20.893V490.98c0,11.589,9.429,21.019,21.019,21.019h12.409c11.589,0,21.019-9.429,21.019-21.019
		V370.053c0-4.466-3.618-8.084-8.084-8.084c-4.466,0-8.084,3.618-8.084,8.084v120.927c0,2.674-2.176,4.851-4.85,4.851H319.8
		c-2.674,0-4.851-2.176-4.851-4.851v-247.68h22.11v98.727c0,4.466,3.618,8.084,8.084,8.084c4.466,0,8.084-3.618,8.084-8.084v-98.852
		c10.531-1.131,18.762-10.066,18.762-20.893v-19.927v-51.3V131.13C371.99,120.303,363.76,111.367,353.228,110.236z M314.95,21.02
		c0-2.674,2.176-4.851,4.851-4.851h12.409c2.674,0,4.85,2.176,4.85,4.851v89.09h-22.11V21.02z M350.971,227.132h-5.827h-38.278
		h-5.827c-2.674,0-4.85-2.176-4.85-4.851V131.13c0-2.674,2.176-4.851,4.85-4.851h5.827h38.278h5.827
		c2.674,0,4.851,2.176,4.851,4.851v11.842h-32.876c-4.466,0-8.084,3.618-8.084,8.084v51.299c0,4.466,3.618,8.084,8.084,8.084h32.876
		v11.843C355.821,224.956,353.646,227.132,350.971,227.132z M355.821,194.27H331.03v-35.13h24.791V194.27z"/>
	<path style="fill:#231F20;" d="M213.219,254.259V136.57c0-4.466-3.618-8.084-8.084-8.084c-4.466,0-8.084,3.618-8.084,8.084v117.562
		h-22.11V21.02c0-2.674,2.176-4.851,4.851-4.851H192.2c2.674,0,4.851,2.176,4.851,4.851v86.459c0,4.466,3.618,8.084,8.084,8.084
		c4.466,0,8.084-3.618,8.084-8.084V21.02c0-11.589-9.429-21.019-21.019-21.019h-12.409c-11.589,0-21.019,9.429-21.019,21.019
		v233.238c-10.532,1.13-18.762,10.066-18.762,20.893v91.152c0,10.826,8.231,19.763,18.762,20.893V490.98
		c0,11.589,9.429,21.019,21.019,21.019H192.2c11.589,0,21.019-9.429,21.019-21.019V387.196c10.532-1.13,18.762-10.066,18.762-20.893
		v-20.287v-51.299v-19.566C231.98,264.325,223.75,255.389,213.219,254.259z M197.05,490.981c0,2.674-2.176,4.851-4.851,4.851
		h-12.409c-2.674,0-4.851-2.176-4.851-4.851V387.323h22.11V490.981z M210.961,371.155h-5.827h-38.278h-5.827
		c-2.674,0-4.851-2.176-4.851-4.85v-91.152c0-2.674,2.176-4.85,4.851-4.85h5.827h38.278h5.827c2.674,0,4.85,2.176,4.85,4.85v11.482
		h-32.876c-4.466,0-8.084,3.618-8.084,8.084v51.299c0,4.466,3.618,8.084,8.084,8.084h32.876v12.203
		C215.812,368.979,213.636,371.155,210.961,371.155z M215.812,337.933H191.02v-35.131h24.791V337.933z"/>
</g>
</svg>